solid PH_SC_reservoir_cube_equal_volume
  facet normal 0 0 -1
    outer loop
      vertex 0.0321079971056053 0.0505604938309063 0.0218981542056605
      vertex 0.0348349759536775 0.0532874726789785 0.0218981542056605
      vertex 0.0348349759536775 0.0505604938309063 0.0218981542056605
    endloop
  endfacet
  facet normal 0 0 -1
    outer loop
      vertex 0.0321079971056053 0.0505604938309063 0.0218981542056605
      vertex 0.0321079971056053 0.0532874726789785 0.0218981542056605
      vertex 0.0348349759536775 0.0532874726789785 0.0218981542056605
    endloop
  endfacet
  facet normal 0 0 1
    outer loop
      vertex 0.0321079971056053 0.0505604938309063 0.0246251330537327
      vertex 0.0348349759536775 0.0505604938309063 0.0246251330537327
      vertex 0.0348349759536775 0.0532874726789785 0.0246251330537327
    endloop
  endfacet
  facet normal 0 0 1
    outer loop
      vertex 0.0321079971056053 0.0505604938309063 0.0246251330537327
      vertex 0.0348349759536775 0.0532874726789785 0.0246251330537327
      vertex 0.0321079971056053 0.0532874726789785 0.0246251330537327
    endloop
  endfacet
  facet normal 0 -1 0
    outer loop
      vertex 0.0321079971056053 0.0505604938309063 0.0218981542056605
      vertex 0.0348349759536775 0.0505604938309063 0.0218981542056605
      vertex 0.0348349759536775 0.0505604938309063 0.0246251330537327
    endloop
  endfacet
  facet normal 0 -1 0
    outer loop
      vertex 0.0321079971056053 0.0505604938309063 0.0218981542056605
      vertex 0.0348349759536775 0.0505604938309063 0.0246251330537327
      vertex 0.0321079971056053 0.0505604938309063 0.0246251330537327
    endloop
  endfacet
  facet normal 0 1 0
    outer loop
      vertex 0.0321079971056053 0.0532874726789785 0.0218981542056605
      vertex 0.0321079971056053 0.0532874726789785 0.0246251330537327
      vertex 0.0348349759536775 0.0532874726789785 0.0246251330537327
    endloop
  endfacet
  facet normal 0 1 0
    outer loop
      vertex 0.0321079971056053 0.0532874726789785 0.0218981542056605
      vertex 0.0348349759536775 0.0532874726789785 0.0246251330537327
      vertex 0.0348349759536775 0.0532874726789785 0.0218981542056605
    endloop
  endfacet
  facet normal -1 0 0
    outer loop
      vertex 0.0321079971056053 0.0505604938309063 0.0218981542056605
      vertex 0.0321079971056053 0.0505604938309063 0.0246251330537327
      vertex 0.0321079971056053 0.0532874726789785 0.0246251330537327
    endloop
  endfacet
  facet normal -1 0 0
    outer loop
      vertex 0.0321079971056053 0.0505604938309063 0.0218981542056605
      vertex 0.0321079971056053 0.0532874726789785 0.0246251330537327
      vertex 0.0321079971056053 0.0532874726789785 0.0218981542056605
    endloop
  endfacet
  facet normal 1 0 0
    outer loop
      vertex 0.0348349759536775 0.0505604938309063 0.0218981542056605
      vertex 0.0348349759536775 0.0532874726789785 0.0218981542056605
      vertex 0.0348349759536775 0.0532874726789785 0.0246251330537327
    endloop
  endfacet
  facet normal 1 0 0
    outer loop
      vertex 0.0348349759536775 0.0505604938309063 0.0218981542056605
      vertex 0.0348349759536775 0.0532874726789785 0.0246251330537327
      vertex 0.0348349759536775 0.0505604938309063 0.0246251330537327
    endloop
  endfacet
endsolid PH_SC_reservoir_cube_equal_volume
