solid PH_SC_reservoir_cylinder_LD3_equal_volume
  facet normal 0 -1 0
    outer loop
      vertex 0.034532651783742 0.0487404874926407 0.0232616436296966
      vertex 0.0342218436767754 0.0487404874926407 0.0240120007768307
      vertex 0.0334714865296414 0.0487404874926407 0.0243228088837972
    endloop
  endfacet
  facet normal 0 1 0
    outer loop
      vertex 0.034532651783742 0.0551074790172442 0.0232616436296966
      vertex 0.0334714865296414 0.0551074790172442 0.0243228088837972
      vertex 0.0342218436767754 0.0551074790172442 0.0240120007768307
    endloop
  endfacet
  facet normal 0 -1 0
    outer loop
      vertex 0.034532651783742 0.0487404874926407 0.0232616436296966
      vertex 0.0334714865296414 0.0487404874926407 0.0243228088837972
      vertex 0.0327211293825073 0.0487404874926407 0.0240120007768307
    endloop
  endfacet
  facet normal 0 1 0
    outer loop
      vertex 0.034532651783742 0.0551074790172442 0.0232616436296966
      vertex 0.0327211293825073 0.0551074790172442 0.0240120007768307
      vertex 0.0334714865296414 0.0551074790172442 0.0243228088837972
    endloop
  endfacet
  facet normal 0 -1 0
    outer loop
      vertex 0.034532651783742 0.0487404874926407 0.0232616436296966
      vertex 0.0327211293825073 0.0487404874926407 0.0240120007768307
      vertex 0.0324103212755408 0.0487404874926407 0.0232616436296966
    endloop
  endfacet
  facet normal 0 1 0
    outer loop
      vertex 0.034532651783742 0.0551074790172442 0.0232616436296966
      vertex 0.0324103212755408 0.0551074790172442 0.0232616436296966
      vertex 0.0327211293825073 0.0551074790172442 0.0240120007768307
    endloop
  endfacet
  facet normal 0 -1 0
    outer loop
      vertex 0.034532651783742 0.0487404874926407 0.0232616436296966
      vertex 0.0324103212755408 0.0487404874926407 0.0232616436296966
      vertex 0.0327211293825073 0.0487404874926407 0.0225112864825625
    endloop
  endfacet
  facet normal 0 1 0
    outer loop
      vertex 0.034532651783742 0.0551074790172442 0.0232616436296966
      vertex 0.0327211293825073 0.0551074790172442 0.0225112864825625
      vertex 0.0324103212755408 0.0551074790172442 0.0232616436296966
    endloop
  endfacet
  facet normal 0 -1 0
    outer loop
      vertex 0.034532651783742 0.0487404874926407 0.0232616436296966
      vertex 0.0327211293825073 0.0487404874926407 0.0225112864825625
      vertex 0.0334714865296414 0.0487404874926407 0.022200478375596
    endloop
  endfacet
  facet normal 0 1 0
    outer loop
      vertex 0.034532651783742 0.0551074790172442 0.0232616436296966
      vertex 0.0334714865296414 0.0551074790172442 0.022200478375596
      vertex 0.0327211293825073 0.0551074790172442 0.0225112864825625
    endloop
  endfacet
  facet normal 0 -1 0
    outer loop
      vertex 0.034532651783742 0.0487404874926407 0.0232616436296966
      vertex 0.0334714865296414 0.0487404874926407 0.022200478375596
      vertex 0.0342218436767754 0.0487404874926407 0.0225112864825625
    endloop
  endfacet
  facet normal 0 1 0
    outer loop
      vertex 0.034532651783742 0.0551074790172442 0.0232616436296966
      vertex 0.0342218436767754 0.0551074790172442 0.0225112864825625
      vertex 0.0334714865296414 0.0551074790172442 0.022200478375596
    endloop
  endfacet
  facet normal 0.923879532511286 0 0.382683432365092
    outer loop
      vertex 0.034532651783742 0.0487404874926407 0.0232616436296966
      vertex 0.0342218436767754 0.0551074790172442 0.0240120007768307
      vertex 0.0342218436767754 0.0487404874926407 0.0240120007768307
    endloop
  endfacet
  facet normal 0.923879532511286 0 0.382683432365092
    outer loop
      vertex 0.034532651783742 0.0487404874926407 0.0232616436296966
      vertex 0.034532651783742 0.0551074790172442 0.0232616436296966
      vertex 0.0342218436767754 0.0551074790172442 0.0240120007768307
    endloop
  endfacet
  facet normal 0.382683432365092 0 0.923879532511286
    outer loop
      vertex 0.0342218436767754 0.0487404874926407 0.0240120007768307
      vertex 0.0334714865296414 0.0551074790172442 0.0243228088837972
      vertex 0.0334714865296414 0.0487404874926407 0.0243228088837972
    endloop
  endfacet
  facet normal 0.382683432365092 0 0.923879532511286
    outer loop
      vertex 0.0342218436767754 0.0487404874926407 0.0240120007768307
      vertex 0.0342218436767754 0.0551074790172442 0.0240120007768307
      vertex 0.0334714865296414 0.0551074790172442 0.0243228088837972
    endloop
  endfacet
  facet normal -0.382683432365092 0 0.923879532511286
    outer loop
      vertex 0.0334714865296414 0.0487404874926407 0.0243228088837972
      vertex 0.0327211293825073 0.0551074790172442 0.0240120007768307
      vertex 0.0327211293825073 0.0487404874926407 0.0240120007768307
    endloop
  endfacet
  facet normal -0.382683432365092 0 0.923879532511286
    outer loop
      vertex 0.0334714865296414 0.0487404874926407 0.0243228088837972
      vertex 0.0334714865296414 0.0551074790172442 0.0243228088837972
      vertex 0.0327211293825073 0.0551074790172442 0.0240120007768307
    endloop
  endfacet
  facet normal -0.923879532511286 0 0.382683432365092
    outer loop
      vertex 0.0327211293825073 0.0487404874926407 0.0240120007768307
      vertex 0.0324103212755408 0.0551074790172442 0.0232616436296966
      vertex 0.0324103212755408 0.0487404874926407 0.0232616436296966
    endloop
  endfacet
  facet normal -0.923879532511286 0 0.382683432365092
    outer loop
      vertex 0.0327211293825073 0.0487404874926407 0.0240120007768307
      vertex 0.0327211293825073 0.0551074790172442 0.0240120007768307
      vertex 0.0324103212755408 0.0551074790172442 0.0232616436296966
    endloop
  endfacet
  facet normal -0.923879532511286 0 -0.382683432365092
    outer loop
      vertex 0.0324103212755408 0.0487404874926407 0.0232616436296966
      vertex 0.0327211293825073 0.0551074790172442 0.0225112864825625
      vertex 0.0327211293825073 0.0487404874926407 0.0225112864825625
    endloop
  endfacet
  facet normal -0.923879532511286 0 -0.382683432365092
    outer loop
      vertex 0.0324103212755408 0.0487404874926407 0.0232616436296966
      vertex 0.0324103212755408 0.0551074790172442 0.0232616436296966
      vertex 0.0327211293825073 0.0551074790172442 0.0225112864825625
    endloop
  endfacet
  facet normal -0.382683432365092 0 -0.923879532511286
    outer loop
      vertex 0.0327211293825073 0.0487404874926407 0.0225112864825625
      vertex 0.0334714865296414 0.0551074790172442 0.022200478375596
      vertex 0.0334714865296414 0.0487404874926407 0.022200478375596
    endloop
  endfacet
  facet normal -0.382683432365092 0 -0.923879532511286
    outer loop
      vertex 0.0327211293825073 0.0487404874926407 0.0225112864825625
      vertex 0.0327211293825073 0.0551074790172442 0.0225112864825625
      vertex 0.0334714865296414 0.0551074790172442 0.022200478375596
    endloop
  endfacet
  facet normal 0.382683432365092 0 -0.923879532511286
    outer loop
      vertex 0.0334714865296414 0.0487404874926407 0.022200478375596
      vertex 0.0342218436767754 0.0551074790172442 0.0225112864825625
      vertex 0.0342218436767754 0.0487404874926407 0.0225112864825625
    endloop
  endfacet
  facet normal 0.382683432365092 0 -0.923879532511286
    outer loop
      vertex 0.0334714865296414 0.0487404874926407 0.022200478375596
      vertex 0.0334714865296414 0.0551074790172442 0.022200478375596
      vertex 0.0342218436767754 0.0551074790172442 0.0225112864825625
    endloop
  endfacet
  facet normal 0.923879532511286 0 -0.382683432365092
    outer loop
      vertex 0.0342218436767754 0.0487404874926407 0.0225112864825625
      vertex 0.034532651783742 0.0551074790172442 0.0232616436296966
      vertex 0.034532651783742 0.0487404874926407 0.0232616436296966
    endloop
  endfacet
  facet normal 0.923879532511286 0 -0.382683432365092
    outer loop
      vertex 0.0342218436767754 0.0487404874926407 0.0225112864825625
      vertex 0.0342218436767754 0.0551074790172442 0.0225112864825625
      vertex 0.034532651783742 0.0551074790172442 0.0232616436296966
    endloop
  endfacet
endsolid PH_SC_reservoir_cylinder_LD3_equal_volume
